<?xml version="1.0" encoding="UTF-8"?>
<!DOCTYPE svg PUBLIC "-//W3C//DTD SVG 1.1//EN" "http://www.w3.org/Graphics/SVG/1.1/DTD/svg11.dtd">
<svg xmlns="http://www.w3.org/2000/svg" version="1.1" width="753px" height="231px" style="shape-rendering:geometricPrecision; text-rendering:geometricPrecision; image-rendering:optimizeQuality; fill-rule:evenodd; clip-rule:evenodd" xmlns:xlink="http://www.w3.org/1999/xlink">
<g><path style="opacity:1" fill="#22b14b" d="M 137.5,16.5 C 140.572,16.1826 143.572,16.5159 146.5,17.5C 141.206,29.0828 136.206,40.7494 131.5,52.5C 119.235,53.8757 110.068,59.8757 104,70.5C 102.126,74.5203 102.126,78.5203 104,82.5C 107.114,85.2958 110.281,87.9625 113.5,90.5C 106.7,106.764 99.3671,122.764 91.5,138.5C 47.9356,129.031 36.4356,104.364 57,64.5C 71.8075,42.7133 91.9741,28.2133 117.5,21C 124.312,19.5409 130.979,18.0409 137.5,16.5 Z"/></g>
<g><path style="opacity:1" fill="#22b14b" d="M 174.5,18.5 C 183.76,18.9736 192.76,20.8069 201.5,24C 205.543,25.4467 209.21,27.4467 212.5,30C 207.723,44.1649 203.056,58.3316 198.5,72.5C 196.473,72.6621 194.473,72.4955 192.5,72C 183.486,62.341 172.486,56.0077 159.5,53C 164.916,41.6689 169.916,30.1689 174.5,18.5 Z"/></g>
<g><path style="opacity:1" fill="#fefffe" d="M 248.5,19.5 C 249.5,19.5 250.5,19.5 251.5,19.5C 258.162,45.1543 264.828,70.821 271.5,96.5C 269.63,102.109 267.964,107.776 266.5,113.5C 269.898,113.18 273.232,113.513 276.5,114.5C 279.761,126.378 283.094,138.212 286.5,150C 275.485,150.168 264.485,150.668 253.5,151.5C 246.303,171.759 239.303,192.092 232.5,212.5C 216.167,213.833 199.833,213.833 183.5,212.5C 205.376,148.206 227.042,83.8724 248.5,19.5 Z"/></g>
<g><path style="opacity:1" fill="#fefffe" d="M 285.5,19.5 C 307.62,18.7974 329.62,19.964 351.5,23C 374.973,29.8281 384.473,45.3281 380,69.5C 372.869,102.122 354.369,125.789 324.5,140.5C 320.105,128.981 316.105,117.314 312.5,105.5C 323.365,95.3841 328.199,83.0508 327,68.5C 324.131,61.7473 318.964,58.2473 311.5,58C 306.582,57.8052 301.749,57.3052 297,56.5C 292.698,44.2872 288.865,31.9539 285.5,19.5 Z"/></g>
<g><path style="opacity:1" fill="#fefffe" d="M 423.5,19.5 C 431.999,43.661 440.332,67.9943 448.5,92.5C 445.866,99.427 443.532,106.427 441.5,113.5C 446.43,113.197 451.263,113.531 456,114.5C 459.735,125.87 463.568,137.204 467.5,148.5C 466.975,149.192 466.308,149.692 465.5,150C 453.153,150.167 440.82,150.667 428.5,151.5C 421.303,171.759 414.303,192.092 407.5,212.5C 391.167,213.833 374.833,213.833 358.5,212.5C 380.376,148.206 402.042,83.8724 423.5,19.5 Z"/></g>
<g><path style="opacity:1" fill="#fefffe" d="M 457.5,19.5 C 471.504,19.3334 485.504,19.5001 499.5,20C 554.521,21.9303 569.687,47.7636 545,97.5C 534.947,115.886 520.614,129.886 502,139.5C 497.692,127.572 493.192,115.739 488.5,104C 498.755,94.2211 503.255,82.3878 502,68.5C 499.131,61.7473 493.964,58.2473 486.5,58C 481.25,57.8071 476.083,57.3071 471,56.5C 466.394,44.1814 461.894,31.8481 457.5,19.5 Z"/></g>
<g><path style="opacity:1" fill="#22b14b" d="M 598.5,19.5 C 613.833,19.5 629.167,19.5 644.5,19.5C 641.646,32.231 638.48,44.8977 635,57.5C 617.122,109.3 599.956,161.3 583.5,213.5C 566.82,213.833 550.153,213.499 533.5,212.5C 555.376,148.206 577.042,83.8724 598.5,19.5 Z"/></g>
<g><path style="opacity:1" fill="#22b14b" d="M 681.5,19.5 C 733.276,26.3582 753.442,55.3582 742,106.5C 730.982,146.054 707.815,176.22 672.5,197C 660.749,202.14 649.082,207.473 637.5,213C 633.518,214.421 630.852,213.254 629.5,209.5C 632.7,197.068 636.2,184.735 640,172.5C 658.123,164.047 672.123,151.047 682,133.5C 685.277,125.945 688.277,118.278 691,110.5C 693.821,99.9027 694.154,89.2361 692,78.5C 690.46,74.5808 688.293,71.0808 685.5,68C 679.814,64.6134 674.481,60.9468 669.5,57C 673.026,44.2577 677.026,31.7577 681.5,19.5 Z"/></g>
<g><path style="opacity:1" fill="#22b14b" d="M 140.5,96.5 C 182.391,106.623 192.891,130.623 172,168.5C 160.169,187.842 143.669,201.675 122.5,210C 110.808,214.637 98.808,217.137 86.5,217.5C 91.6667,205.833 96.8333,194.167 102,182.5C 112.45,179.454 120.117,173.12 125,163.5C 125.74,160.824 126.073,158.158 126,155.5C 124.077,151.742 121.577,148.409 118.5,145.5C 125.573,129.022 132.907,112.689 140.5,96.5 Z"/></g>
<g><path style="opacity:1" fill="#22b14b" d="M 22.5,157.5 C 24.1992,157.34 25.8659,157.506 27.5,158C 39.6242,171.446 54.6242,179.78 72.5,183C 66.8427,195.004 61.0094,206.837 55,218.5C 38.1434,216.603 22.31,211.603 7.5,203.5C 12.9075,188.278 17.9075,172.945 22.5,157.5 Z"/></g>
</svg>
