<svg xmlns="http://www.w3.org/2000/svg" version="1.1" width="160px" height="100px" style="shape-rendering:geometricPrecision; text-rendering:geometricPrecision; image-rendering:optimizeQuality; fill-rule:evenodd; clip-rule:evenodd" xmlns:xlink="http://www.w3.org/1999/xlink">
    <g><path style="opacity:1" fill="#46342b" d="M 43,7 C 50,8 57,9 64,10C 69,13 73,16 77,19C 82,25 85,31 87,38C 88,38 88,38 88,37C 93,32 99,28 105,26C 108,19 112,16 119,14C 120,14 122,15 123,16C 123,18 124,20 125,23C 134,24 141,27 147,34C 149,37 149,40 147,44C 145,46 142,47 140,49C 150,55 151,63 143,72C 139,74 135,74 131,72C 129,70 127,68 125,66C 123,67 121,68 120,69C 118,74 115,78 112,82C 113,84 116,86 118,88C 120,90 120,92 119,94C 105,96 91,96 77,95C 72,92 66,90 61,89C 56,87 53,84 50,80C 48,74 46,69 45,64C 44,62 43,60 44,59C 40,58 37,58 34,58C 19,53 13,43 15,29C 20,16 30,9 44,8 Z M 130,50 C 131,49 132,50 134,50C 130,52 127,54 124,56C 123,54 123,53 125,51C 126,50 128,50 130,50 Z"/></g>
    <g><path style="opacity:1" fill="#faf9f6" d="M 116,20 C 117,19 118,20 119,21C 120,22 121,24 122,27C 129,27 136,30 142,34C 144,39 143,42 139,44C 132,46 125,47 118,48C 116,49 117,51 119,52C 117,54 117,56 117,59C 119,59 122,59 125,59C 125,60 124,62 124,63C 120,64 117,65 115,67C 113,74 109,80 102,85C 102,85 101,87 102,88C 104,87 107,86 110,86C 112,88 114,90 116,91C 114,92 113,92 112,92C 100,93 88,93 77,91C 72,85 70,79 72,72C 78,52 91,38 109,29C 110,25 113,22 116,20 Z"/></g>
    <g><path style="opacity:1" fill="#46342b" d="M 125,35 C 129,35 129,37 126,40C 123,39 123,37 125,35 Z"/></g>
    <g><path style="opacity:1" fill="#faf9f6" d="M 62,15C 75,20 82,29 82,44C 77,28 66,19 51,16C 58,16 62,15 Z"/></g>
    <g><path style="opacity:1" fill="#faf9f6" d="M 19,38C 25,50 22,45C 20,43 Z"/></g>
    <g><path style="opacity:1" fill="#faf9f6" d="M 63,16 C 59,16 55,17 52,16C 48,16 44,16 41,16C 40,18 41,19 42,20C 58,20 69,26 77,41C 78,43 79,46 78,50C 69,61 66,73 69,88C 63,86 58,83 55,79C 52,72 50,66 49,60C 52,58 56,56 60,55C 62,53 64,51 65,48C 61,48 58,49 57,52C 55,53 53,54 51,55C 47,55 43,55 39,54C 34,51 30,49 26,48C 26,46 25,45 25,45C 23,43 21,41 20,39C 18,26 23,18 35,13C 44,10 54,11 63,16 Z"/></g>
    <g><path style="opacity:1" fill="#f9ec01" d="M 133,52 C 141,52 145,56 145,65C 143,69 139,71 134,70C 126,64 126,58 134,53 Z"/></g>
    <g><path style="opacity:1" fill="#46342b" d="M 132,55 C 135,55 139,56 142,58C 143,59 143,60 142,61C 138,57 135,58 133,62C 135,65 137,65 140,63C 141,64 142,66 142,68C 133,70 129,67 130,59C 131,57 132,56 133,55 Z"/></g>
</svg>
